{"title":"The Hobbit The Desolation Of Smaug 2013 NEW HD DVDScr x264 Pim","uid":9409288,"size":3892754791,"categoryP":"video","categoryS":"movies","magnet":"?xt=urn:btih:05cbb3b4a6459eada1ebe5205c5282947be3f6da&amp;dn=The+Hobbit+The+Desolation+Of+Smaug+2013+NEW+HD+DVDScr+x264+Pim&amp;tr=udp%3A%2F%2Ftracker.openbittorrent.com%3A80&amp;tr=udp%3A%2F%2Fopen.demonii.com%3A1337&amp;tr=udp%3A%2F%2Ftracker.coppersurfer.tk%3A6969&amp;tr=udp%3A%2F%2Fexodus.desync.com%3A6969","seeders":18,"leechers":0,"uploader":"shawnmurthy","files":-1,"time":1388240675,"description":"Get all Pimp4003 newest releases first at \n\n[url]http://www.pimp4003.se[/url] OR \n\n[url]WWW.PIMP4003.NET[/url] with VIP downloads speed\n\nRegister here and you can chat, request movies, view upcoming uploads and much more\n\nUPLOAD UNLIMITED IMAGES AND UP TO 10MB IN FILE SIZES FOR FREE....\n\n[url]http://www.piczhub.com[/url]\n &lt;a href=&quot;\nhttp://www.piczhub.com/photos/20131204138615861113650.gif&quot; rel=&quot;nofollow&quot; target=&quot;_NEW&quot;&gt;\nhttp://www.piczhub.com/photos/20131204138615861113650.gif&lt;/a&gt;\nhttp://www.piczhub.com/photos/20131204138615861100622.png\nhttp://www.piczhub.com/photos/20131219138744296195028.jpg\nhttp://www.piczhub.com/photos/20131228138823619154172.jpg\nhttp://www.piczhub.com/photos/20131228138823532133742.png\nhttp://www.piczhub.com/photos/20131228138823532945248.png\nhttp://www.piczhub.com/photos/20131228138823532158771.png\nhttp://www.piczhub.com/photos/20131228138823532323565.png\nhttp://www.piczhub.com/photos/20131228138823533164798.png\n\n\nPIMP4003 AND PIMPRG PRESENTS\n\nThe Hobbit The Desolation Of Smaug 2013 NEW 720p DVDScr x264 Pimp4003 &lt;a href=&quot;\nhttp://www.imdb.com/title/tt1170358/&quot; rel=&quot;nofollow&quot; target=&quot;_NEW&quot;&gt;\nhttp://www.imdb.com/title/tt1170358/&lt;/a&gt;\n\nThe dwarves, along with Bilbo Baggins and Gandalf the Grey, continue their quest to reclaim Erebor, their homeland, from Smaug. Bilbo Baggins is in possession of a mysterious and magical ring.\n\nDirector: Peter Jackson\nWriters: Fran Walsh (screenplay), Philippa Boyens (screenplay), 3 more credits Â»\nStars: Ian McKellen, Martin Freeman, Richard Armitage | See full cast and crew Â»\n\nGenre: Action | Thriller\nFile Size: 3.62GB\nSource: EVIL-DEAD\nLanguage: ENGLISH\n\nVideo\nID                                       : 2\nFormat                                   : AVC\nFormat/Info                              : Advanced Video Codec\nFormat profile                           : &lt;a class=&quot;__cf_email__&quot; href=&quot;/cdn-cgi/l/email-protection&quot; data-cfemail=&quot;3476554751585d5a517478071a04&quot;&gt;[email&amp;#160;protected]&lt;/a&gt;&lt;script cf-hash='f9e31' type=&quot;text/javascript&quot;&gt;\n/* &lt;![CDATA[ */!function(){try{var t=&quot;currentScript&quot;in document?document.currentScript:function(){for(var t=document.getElementsByTagName(&quot;script&quot;),e=t.length;e--;)if(t[e].getAttribute(&quot;cf-hash&quot;))return t[e]}();if(t&amp;&amp;t.previousSibling){var e,r,n,i,c=t.previousSibling,a=c.getAttribute(&quot;data-cfemail&quot;);if(a){for(e=&quot;&quot;,r=parseInt(a.substr(0,2),16),n=2;a.length-n;n+=2)i=parseInt(a.substr(n,2),16)^r,e+=String.fromCharCode(i);e=document.createTextNode(e),c.parentNode.replaceChild(e,c)}}}catch(u){}}();/* ]]&gt; */&lt;/script&gt;\nFormat settings, CABAC                   : No\nFormat settings, ReFrames                : 1 frame\nMuxing mode                              : Container profile=&lt;a class=&quot;__cf_email__&quot; href=&quot;/cdn-cgi/l/email-protection&quot; data-cfemail=&quot;4c0e2d3f29202522290c78627d&quot;&gt;[email&amp;#160;protected]&lt;/a&gt;&lt;script cf-hash='f9e31' type=&quot;text/javascript&quot;&gt;\n/* &lt;![CDATA[ */!function(){try{var t=&quot;currentScript&quot;in document?document.currentScript:function(){for(var t=document.getElementsByTagName(&quot;script&quot;),e=t.length;e--;)if(t[e].getAttribute(&quot;cf-hash&quot;))return t[e]}();if(t&amp;&amp;t.previousSibling){var e,r,n,i,c=t.previousSibling,a=c.getAttribute(&quot;data-cfemail&quot;);if(a){for(e=&quot;&quot;,r=parseInt(a.substr(0,2),16),n=2;a.length-n;n+=2)i=parseInt(a.substr(n,2),16)^r,e+=String.fromCharCode(i);e=document.createTextNode(e),c.parentNode.replaceChild(e,c)}}}catch(u){}}();/* ]]&gt; */&lt;/script&gt;\nCodec ID                                 : avc1\nCodec ID/Info                            : Advanced Video Coding\nDuration                                 : 2h 41mn\nBit rate                                 : 3 120 Kbps\nWidth                                    : 1 280 pixels\nHeight                                   : 720 pixels\nDisplay aspect ratio                     : 16:9\nFrame rate mode                          : Constant\nFrame rate                               : 29.970 fps\nOriginal frame rate                      : 29.000 fps\nColor space                              : YUV\nChroma subsampling                       : 4:2:0\nBit depth                                : 8 bits\nScan type                                : Progressive\nBits/(Pixel*Frame)                       : 0.113\nStream size                              : 3.51 GiB (97%)\nWriting library                          : Ã„\nLanguage                                 : English\n\nAudio\nID                                       : 1\nFormat                                   : AAC\nFormat/Info                              : Advanced Audio Codec\nFormat profile                           : LC\nCodec ID                                 : 40\nDuration                                 : 2h 41mn\nBit rate mode                            : Constant\nBit rate                                 : 96.0 Kbps\nChannel(s)                               : 6 channels\nChannel positions                        : Front: L C R, Side: L R, LFE\nSampling rate                            : 48.0 KHz\nCompression mode                         : Lossy\nStream size                              : 111 MiB (3%)\nLanguage                                 : English\n\n\nALWAYS ON SEED BOX\n\nGREETZ TO PIMPRG AND ALL OTHER GROUPS\n\nPimp4003 | SUJAIDR | PIMPRG | JUNAIDZIA | RICKYKT | LOKKIODDIN | SCENEDL | Ali1997 | AND ALL OTHER P2P AND SCENE GROUPS\n","torrent":{"xt":"urn:btih:05cbb3b4a6459eada1ebe5205c5282947be3f6da","amp;dn":"The+Hobbit+The+Desolation+Of+Smaug+2013+NEW+HD+DVDScr+x264+Pim","amp;tr":["udp%3A%2F%2Ftracker.openbittorrent.com%3A80","udp%3A%2F%2Fopen.demonii.com%3A1337","udp%3A%2F%2Ftracker.coppersurfer.tk%3A6969","udp%3A%2F%2Fexodus.desync.com%3A6969"],"infoHash":"05cbb3b4a6459eada1ebe5205c5282947be3f6da","infoHashBuffer":{"type":"Buffer","data":[5,203,179,180,166,69,158,173,161,235,229,32,92,82,130,148,123,227,246,218]},"announce":[],"urlList":[]}}